<?xml version="1.0" encoding="utf-8"?>
<!-- Generator: Adobe Illustrator 19.2.1, SVG Export Plug-In . SVG Version: 6.00 Build 0)  -->
<svg version="1.1" id="Layer_1" xmlns="http://www.w3.org/2000/svg" xmlns:xlink="http://www.w3.org/1999/xlink" x="0px" y="0px"
	 viewBox="0 0 216.5 24.7" style="enable-background:new 0 0 216.5 24.7;" xml:space="preserve">
<style type="text/css">
	.st0{display:none;}
	.st1{display:inline;fill:#FFFFFF;stroke:#000000;stroke-miterlimit:10;}
	.st2{fill:#FFFFFF;}
	.st3{fill:#13B28B;}
	.st4{fill:none;stroke:#13B28B;stroke-miterlimit:10;}
	.st5{opacity:0.4;fill:#13B38B;enable-background:new    ;}
	.st6{fill:#13B38B;}
</style>
<g id="Layer_1_1_" class="st0">
</g>
<g id="Layer_2" class="st0">
	<rect id="background" x="-88.1" y="-125.3" class="st1" width="400" height="300"/>
	
		<image style="display:inline;overflow:visible;enable-background:new    ;" width="228" height="29" xlink:href="2622204E.png"  transform="matrix(1 0 0 1 -2.1335 -2.032)">
	</image>
</g>
<g id="Layer_3">
	<g>
		<path class="st2" d="M32.6,22.9l8-21.3h4.7l7.9,21.3H47l-1.3-4.2H40l-1.3,4.2C38.7,22.9,32.6,22.9,32.6,22.9z M42.9,7.7l-2,7.1
			h3.9L42.9,7.7z"/>
		<path class="st2" d="M54.8,22.9V1.6h5.9v16.2h9.7v5.1H54.8z"/>
		<path class="st2" d="M72.5,22.9V1.6h9.2c1,0,2,0.2,2.9,0.6s1.6,1,2.3,1.7c0.6,0.7,1.1,1.5,1.5,2.4s0.5,1.8,0.5,2.7
			s-0.2,1.9-0.5,2.7c-0.3,0.9-0.8,1.7-1.4,2.4c-0.6,0.7-1.4,1.2-2.2,1.7c-0.9,0.4-1.8,0.6-2.9,0.6h-3.5v6.5H72.5z M78.3,11.2h3.1
			c0.4,0,0.7-0.2,1-0.5c0.3-0.3,0.5-0.9,0.5-1.8s-0.2-1.5-0.5-1.8c-0.4-0.3-0.7-0.5-1.1-0.5h-2.9L78.3,11.2L78.3,11.2z"/>
		<path class="st2" d="M109.9,1.6v21.3H104v-8.3h-7.1v8.3H91V1.6h5.9v7.9h7.1V1.6H109.9z"/>
		<path class="st2" d="M111.5,22.9l8-21.3h4.7l7.9,21.3h-6.2l-1.3-4.2h-5.7l-1.3,4.2C117.6,22.9,111.5,22.9,111.5,22.9z M121.8,7.7
			l-2,7.1h3.9L121.8,7.7z"/>
		<path class="st3" d="M133.7,22.9V1.6h9.8c1,0,2,0.2,2.9,0.6s1.6,1,2.3,1.7s1.1,1.5,1.5,2.4s0.5,1.8,0.5,2.7c0,1.2-0.3,2.4-0.8,3.5
			s-1.3,1.9-2.3,2.6l4.8,7.8h-6.6l-4-6.5h-2.2v6.5C139.6,22.9,133.7,22.9,133.7,22.9z M139.5,11.2h3.7c0.4,0,0.7-0.2,1-0.6
			c0.3-0.4,0.5-1,0.5-1.7c0-0.7-0.2-1.3-0.5-1.7c-0.4-0.4-0.7-0.6-1.1-0.6h-3.5L139.5,11.2L139.5,11.2z"/>
		<path class="st3" d="M152.2,22.9l8-21.3h4.7l7.9,21.3h-6.2l-1.3-4.2h-5.7l-1.3,4.2C158.3,22.9,152.2,22.9,152.2,22.9z M162.5,7.7
			l-2,7.1h3.9L162.5,7.7z"/>
		<path class="st3" d="M180.3,12.4v10.5h-5.8V1.6h4.6l8.6,10.8V1.6h5.8v21.3h-4.7L180.3,12.4z"/>
		<path class="st3" d="M197,22.9V1.6h5.8v8.7l7.1-8.7h6l-7.7,9.5l8.3,11.8h-6.1l-5.6-8.5l-1.9,2.2v6.3C202.9,22.9,197,22.9,197,22.9
			z"/>
	</g>
</g>
<g id="Layer_4">
	<circle class="st4" cx="4.3" cy="16.6" r="3.8"/>
	<line class="st4" x1="8.1" y1="15.6" x2="13.8" y2="14.1"/>
	<circle class="st5" cx="18.3" cy="13.5" r="4.6"/>
	<circle class="st6" cx="18.3" cy="13.5" r="2.3"/>
	<line class="st4" x1="17.2" y1="9.1" x2="15.6" y2="4.8"/>
	<circle class="st6" cx="14.7" cy="2.6" r="2.6"/>
	<line class="st4" x1="21.7" y1="16.6" x2="23.9" y2="18.8"/>
	<circle class="st6" cx="26.3" cy="21.1" r="3.6"/>
</g>
</svg>
