<svg xmlns="http://www.w3.org/2000/svg" width="1920" height="1080"><path d="M346,-293L1235,-283L1439,-293Z" fill="#1e2831" stroke="#1e2831" stroke-width="1.51"/><path d="M1320,1336L1095,1336L1547,1376Z" fill="#287b6c" stroke="#287b6c" stroke-width="1.51"/><path d="M1095,1336L567,1355L1547,1376Z" fill="#296f64" stroke="#296f64" stroke-width="1.51"/><path d="M1439,-293L1755,-259L1968,-283Z" fill="#254844" stroke="#254844" stroke-width="1.51"/><path d="M1993,1254L1788,1354L2163,1244Z" fill="#22987c" stroke="#22987c" stroke-width="1.51"/><path d="M2159,902L2115,1041L2163,1244Z" fill="#258f77" stroke="#258f77" stroke-width="1.51"/><path d="M1948,828L2159,902L2183,588Z" fill="#297769" stroke="#297769" stroke-width="1.51"/><path d="M1910,714L1948,828L2183,588Z" fill="#296e64" stroke="#296e64" stroke-width="1.51"/><path d="M1968,-283L1961,25L2194,0Z" fill="#275a51" stroke="#275a51" stroke-width="1.51"/><path d="M1961,25L1963,181L2194,0Z" fill="#275c53" stroke="#275c53" stroke-width="1.51"/><path d="M2194,0L1963,181L2196,226Z" fill="#286157" stroke="#286157" stroke-width="1.51"/><path d="M1968,-283L2194,0L2208,-267Z" fill="#265c51" stroke="#265c51" stroke-width="1.51"/><path d="M2183,588L2159,902L2225,405Z" fill="#297066" stroke="#297066" stroke-width="1.51"/><path d="M2159,902L2163,1244L2225,405Z" fill="#28816f" stroke="#28816f" stroke-width="1.51"/><path d="M2196,226L1929,386L2225,405Z" fill="#29645b" stroke="#29645b" stroke-width="1.51"/><path d="M1929,386L2183,588L2225,405Z" fill="#29655e" stroke="#29655e" stroke-width="1.51"/><path d="M2208,-267L2194,0L2225,405Z" fill="#286358" stroke="#286358" stroke-width="1.51"/><path d="M2194,0L2196,226L2225,405Z" fill="#28665b" stroke="#28665b" stroke-width="1.51"/><path d="M1963,181L1929,386L2196,226Z" fill="#285e57" stroke="#285e57" stroke-width="1.51"/><path d="M2115,1041L1968,1155L2163,1244Z" fill="#249279" stroke="#249279" stroke-width="1.51"/><path d="M1968,1155L1993,1254L2163,1244Z" fill="#23957b" stroke="#23957b" stroke-width="1.51"/><path d="M1929,386L1910,714L2183,588Z" fill="#29635d" stroke="#29635d" stroke-width="1.51"/><path d="M1948,828L2115,1041L2159,902Z" fill="#27816f" stroke="#27816f" stroke-width="1.51"/><path d="M1948,828L1968,1155L2115,1041Z" fill="#278470" stroke="#278470" stroke-width="1.51"/><path d="M1688,627L1910,714L1929,386Z" fill="#295c59" stroke="#295c59" stroke-width="1.51"/><path d="M1698,437L1688,627L1929,386Z" fill="#285555" stroke="#285555" stroke-width="1.51"/><path d="M1755,-259L1665,-27L1961,25Z" fill="#264e4a" stroke="#264e4a" stroke-width="1.51"/><path d="M1948,828L1792,934L1968,1155Z" fill="#287c6c" stroke="#287c6c" stroke-width="1.51"/><path d="M1755,-259L1961,25L1968,-283Z" fill="#26524b" stroke="#26524b" stroke-width="1.51"/><path d="M1968,1155L1788,1354L1993,1254Z" fill="#249278" stroke="#249278" stroke-width="1.51"/><path d="M1961,25L1768,144L1963,181Z" fill="#285650" stroke="#285650" stroke-width="1.51"/><path d="M1768,144L1929,386L1963,181Z" fill="#285753" stroke="#285753" stroke-width="1.51"/><path d="M1792,934L1686,1153L1968,1155Z" fill="#287f6e" stroke="#287f6e" stroke-width="1.51"/><path d="M1686,1153L1788,1354L1968,1155Z" fill="#268a74" stroke="#268a74" stroke-width="1.51"/><path d="M1665,-27L1768,144L1961,25Z" fill="#27504c" stroke="#27504c" stroke-width="1.51"/><path d="M346,-293L664,-207L1235,-283Z" fill="#1d252e" stroke="#1d252e" stroke-width="1.51"/><path d="M1768,144L1698,437L1929,386Z" fill="#285452" stroke="#285452" stroke-width="1.51"/><path d="M1910,714L1792,934L1948,828Z" fill="#297065" stroke="#297065" stroke-width="1.51"/><path d="M1688,627L1792,934L1910,714Z" fill="#2a675f" stroke="#2a675f" stroke-width="1.51"/><path d="M890,1311L567,1355L1095,1336Z" fill="#29675f" stroke="#29675f" stroke-width="1.51"/><path d="M1451,155L1698,437L1768,144Z" fill="#274b4c" stroke="#274b4c" stroke-width="1.51"/><path d="M1686,1153L1547,1376L1788,1354Z" fill="#268973" stroke="#268973" stroke-width="1.51"/><path d="M1444,1060L1686,1153L1792,934Z" fill="#297467" stroke="#297467" stroke-width="1.51"/><path d="M1449,851L1444,1060L1792,934Z" fill="#296961" stroke="#296961" stroke-width="1.51"/><path d="M1688,627L1449,851L1792,934Z" fill="#29635d" stroke="#29635d" stroke-width="1.51"/><path d="M664,-207L847,-193L1235,-283Z" fill="#1e2730" stroke="#1e2730" stroke-width="1.51"/><path d="M1439,-293L1665,-27L1755,-259Z" fill="#244543" stroke="#244543" stroke-width="1.51"/><path d="M1665,-27L1571,5L1768,144Z" fill="#264a49" stroke="#264a49" stroke-width="1.51"/><path d="M1571,5L1451,155L1768,144Z" fill="#254848" stroke="#254848" stroke-width="1.51"/><path d="M1439,-293L1571,5L1665,-27Z" fill="#244343" stroke="#244343" stroke-width="1.51"/><path d="M1530,604L1449,851L1688,627Z" fill="#285756" stroke="#285756" stroke-width="1.51"/><path d="M1530,604L1688,627L1698,437Z" fill="#285152" stroke="#285152" stroke-width="1.51"/><path d="M1446,484L1530,604L1698,437Z" fill="#274b4f" stroke="#274b4f" stroke-width="1.51"/><path d="M1451,155L1446,484L1698,437Z" fill="#26484b" stroke="#26484b" stroke-width="1.51"/><path d="M1444,1060L1547,1376L1686,1153Z" fill="#287c6c" stroke="#287c6c" stroke-width="1.51"/><path d="M1291,366L1446,484L1451,155Z" fill="#254247" stroke="#254247" stroke-width="1.51"/><path d="M1444,1060L1320,1336L1547,1376Z" fill="#287a6b" stroke="#287a6b" stroke-width="1.51"/><path d="M1263,-65L1451,155L1571,5Z" fill="#243f42" stroke="#243f42" stroke-width="1.51"/><path d="M1439,-293L1263,-65L1571,5Z" fill="#243d3f" stroke="#243d3f" stroke-width="1.51"/><path d="M442,1328L-23,1332L567,1355Z" fill="#286258" stroke="#286258" stroke-width="1.51"/><path d="M1263,-65L1338,145L1451,155Z" fill="#243c41" stroke="#243c41" stroke-width="1.51"/><path d="M1269,633L1449,851L1530,604Z" fill="#285052" stroke="#285052" stroke-width="1.51"/><path d="M1446,484L1269,633L1530,604Z" fill="#27484d" stroke="#27484d" stroke-width="1.51"/><path d="M847,-193L1126,-226L1235,-283Z" fill="#1f2c34" stroke="#1f2c34" stroke-width="1.51"/><path d="M1235,-283L1263,-65L1439,-293Z" fill="#22373a" stroke="#22373a" stroke-width="1.51"/><path d="M1244,1050L1320,1336L1444,1060Z" fill="#296d63" stroke="#296d63" stroke-width="1.51"/><path d="M1273,930L1244,1050L1444,1060Z" fill="#29625d" stroke="#29625d" stroke-width="1.51"/><path d="M1273,930L1444,1060L1449,851Z" fill="#29615c" stroke="#29615c" stroke-width="1.51"/><path d="M1269,633L1273,930L1449,851Z" fill="#285454" stroke="#285454" stroke-width="1.51"/><path d="M1338,145L1291,366L1451,155Z" fill="#243e44" stroke="#243e44" stroke-width="1.51"/><path d="M1291,366L1269,633L1446,484Z" fill="#264148" stroke="#264148" stroke-width="1.51"/><path d="M1269,633L1112,675L1273,930Z" fill="#274a4e" stroke="#274a4e" stroke-width="1.51"/><path d="M1013,425L1269,633L1291,366Z" fill="#243a44" stroke="#243a44" stroke-width="1.51"/><path d="M1244,1050L1095,1336L1320,1336Z" fill="#296e64" stroke="#296e64" stroke-width="1.51"/><path d="M1100,180L1291,366L1338,145Z" fill="#243a41" stroke="#243a41" stroke-width="1.51"/><path d="M1263,-65L1100,180L1338,145Z" fill="#23373e" stroke="#23373e" stroke-width="1.51"/><path d="M1235,-283L1126,-226L1263,-65Z" fill="#213238" stroke="#213238" stroke-width="1.51"/><path d="M1096,-55L1100,180L1263,-65Z" fill="#21333b" stroke="#21333b" stroke-width="1.51"/><path d="M1011,1039L1095,1336L1244,1050Z" fill="#29625d" stroke="#29625d" stroke-width="1.51"/><path d="M1013,425L1112,675L1269,633Z" fill="#243b45" stroke="#243b45" stroke-width="1.51"/><path d="M1112,675L1011,866L1273,930Z" fill="#274c4f" stroke="#274c4f" stroke-width="1.51"/><path d="M1100,180L1013,425L1291,366Z" fill="#233640" stroke="#233640" stroke-width="1.51"/><path d="M1126,-226L1096,-55L1263,-65Z" fill="#213138" stroke="#213138" stroke-width="1.51"/><path d="M1011,1039L1244,1050L1273,930Z" fill="#295b58" stroke="#295b58" stroke-width="1.51"/><path d="M1011,866L1011,1039L1273,930Z" fill="#285354" stroke="#285354" stroke-width="1.51"/><path d="M1011,1039L890,1311L1095,1336Z" fill="#29625d" stroke="#29625d" stroke-width="1.51"/><path d="M897,383L1013,425L1100,180Z" fill="#22303c" stroke="#22303c" stroke-width="1.51"/><path d="M1096,-55L780,-81L1100,180Z" fill="#202c36" stroke="#202c36" stroke-width="1.51"/><path d="M1013,425L802,673L1112,675Z" fill="#233541" stroke="#233541" stroke-width="1.51"/><path d="M847,-193L1096,-55L1126,-226Z" fill="#1f2b33" stroke="#1f2b33" stroke-width="1.51"/><path d="M780,-81L787,248L1100,180Z" fill="#202b36" stroke="#202b36" stroke-width="1.51"/><path d="M802,673L1011,866L1112,675Z" fill="#253f47" stroke="#253f47" stroke-width="1.51"/><path d="M787,248L897,383L1100,180Z" fill="#212d39" stroke="#212d39" stroke-width="1.51"/><path d="M847,-193L780,-81L1096,-55Z" fill="#1f2832" stroke="#1f2832" stroke-width="1.51"/><path d="M780,-81L700,177L787,248Z" fill="#1f2934" stroke="#1f2934" stroke-width="1.51"/><path d="M794,1025L890,1311L1011,1039Z" fill="#295956" stroke="#295956" stroke-width="1.51"/><path d="M840,916L794,1025L1011,1039Z" fill="#274f51" stroke="#274f51" stroke-width="1.51"/><path d="M840,916L1011,1039L1011,866Z" fill="#274c50" stroke="#274c50" stroke-width="1.51"/><path d="M802,673L840,916L1011,866Z" fill="#264349" stroke="#264349" stroke-width="1.51"/><path d="M897,383L802,673L1013,425Z" fill="#22303d" stroke="#22303d" stroke-width="1.51"/><path d="M-311,-243L136,-229L346,-293Z" fill="#1a1f25" stroke="#1a1f25" stroke-width="1.51"/><path d="M802,673L700,829L840,916Z" fill="#254147" stroke="#254147" stroke-width="1.51"/><path d="M794,1025L581,1112L890,1311Z" fill="#295956" stroke="#295956" stroke-width="1.51"/><path d="M581,1112L567,1355L890,1311Z" fill="#28605a" stroke="#28605a" stroke-width="1.51"/><path d="M575,499L802,673L897,383Z" fill="#222f3c" stroke="#222f3c" stroke-width="1.51"/><path d="M787,248L575,499L897,383Z" fill="#212d39" stroke="#212d39" stroke-width="1.51"/><path d="M612,45L700,177L780,-81Z" fill="#1f2832" stroke="#1f2832" stroke-width="1.51"/><path d="M575,499L678,702L802,673Z" fill="#23343f" stroke="#23343f" stroke-width="1.51"/><path d="M678,702L700,829L802,673Z" fill="#243c44" stroke="#243c44" stroke-width="1.51"/><path d="M664,-207L780,-81L847,-193Z" fill="#1e262f" stroke="#1e262f" stroke-width="1.51"/><path d="M700,829L794,1025L840,916Z" fill="#27494c" stroke="#27494c" stroke-width="1.51"/><path d="M700,177L575,499L787,248Z" fill="#202b37" stroke="#202b37" stroke-width="1.51"/><path d="M700,829L581,1112L794,1025Z" fill="#274d4e" stroke="#274d4e" stroke-width="1.51"/><path d="M664,-207L612,45L780,-81Z" fill="#1e2630" stroke="#1e2630" stroke-width="1.51"/><path d="M226,1277L-23,1332L442,1328Z" fill="#285f55" stroke="#285f55" stroke-width="1.51"/><path d="M678,702L403,718L700,829Z" fill="#243c43" stroke="#243c43" stroke-width="1.51"/><path d="M403,718L446,925L700,829Z" fill="#254045" stroke="#254045" stroke-width="1.51"/><path d="M446,925L581,1112L700,829Z" fill="#26494b" stroke="#26494b" stroke-width="1.51"/><path d="M431,423L575,499L700,177Z" fill="#202b36" stroke="#202b36" stroke-width="1.51"/><path d="M612,45L376,191L700,177Z" fill="#1f2832" stroke="#1f2832" stroke-width="1.51"/><path d="M376,191L431,423L700,177Z" fill="#1f2934" stroke="#1f2934" stroke-width="1.51"/><path d="M355,47L612,45L664,-207Z" fill="#1e262f" stroke="#1e262f" stroke-width="1.51"/><path d="M346,-293L355,47L664,-207Z" fill="#1c242c" stroke="#1c242c" stroke-width="1.51"/><path d="M575,499L403,718L678,702Z" fill="#22343e" stroke="#22343e" stroke-width="1.51"/><path d="M446,925L396,1071L581,1112Z" fill="#274f4d" stroke="#274f4d" stroke-width="1.51"/><path d="M442,1328L567,1355L581,1112Z" fill="#285f57" stroke="#285f57" stroke-width="1.51"/><path d="M355,47L376,191L612,45Z" fill="#1e2730" stroke="#1e2730" stroke-width="1.51"/><path d="M431,423L403,718L575,499Z" fill="#212d39" stroke="#212d39" stroke-width="1.51"/><path d="M396,1071L442,1328L581,1112Z" fill="#285853" stroke="#285853" stroke-width="1.51"/><path d="M346,-293L136,-229L355,47Z" fill="#1c2229" stroke="#1c2229" stroke-width="1.51"/><path d="M208,417L122,610L403,718Z" fill="#202e37" stroke="#202e37" stroke-width="1.51"/><path d="M208,417L403,718L431,423Z" fill="#202b37" stroke="#202b37" stroke-width="1.51"/><path d="M376,191L208,417L431,423Z" fill="#1f2934" stroke="#1f2934" stroke-width="1.51"/><path d="M396,1071L226,1277L442,1328Z" fill="#285a54" stroke="#285a54" stroke-width="1.51"/><path d="M403,718L165,808L446,925Z" fill="#253e43" stroke="#253e43" stroke-width="1.51"/><path d="M165,808L396,1071L446,925Z" fill="#264647" stroke="#264647" stroke-width="1.51"/><path d="M-311,-243L0,-189L136,-229Z" fill="#1b1f24" stroke="#1b1f24" stroke-width="1.51"/><path d="M136,-229L167,60L355,47Z" fill="#1d232b" stroke="#1d232b" stroke-width="1.51"/><path d="M121,217L208,417L376,191Z" fill="#1e2731" stroke="#1e2731" stroke-width="1.51"/><path d="M151,1159L226,1277L396,1071Z" fill="#275650" stroke="#275650" stroke-width="1.51"/><path d="M165,808L151,1159L396,1071Z" fill="#264a49" stroke="#264a49" stroke-width="1.51"/><path d="M122,610L165,808L403,718Z" fill="#22363d" stroke="#22363d" stroke-width="1.51"/><path d="M32,1031L151,1159L165,808Z" fill="#254847" stroke="#254847" stroke-width="1.51"/><path d="M355,47L167,60L376,191Z" fill="#1d262f" stroke="#1d262f" stroke-width="1.51"/><path d="M167,60L121,217L376,191Z" fill="#1e252f" stroke="#1e252f" stroke-width="1.51"/><path d="M0,-189L34,37L136,-229Z" fill="#1b2127" stroke="#1b2127" stroke-width="1.51"/><path d="M33,903L32,1031L165,808Z" fill="#254243" stroke="#254243" stroke-width="1.51"/><path d="M136,-229L34,37L167,60Z" fill="#1c2229" stroke="#1c2229" stroke-width="1.51"/><path d="M151,1159L-23,1332L226,1277Z" fill="#275a51" stroke="#275a51" stroke-width="1.51"/><path d="M121,217L-5,227L208,417Z" fill="#1e262f" stroke="#1e262f" stroke-width="1.51"/><path d="M-5,227L-51,500L208,417Z" fill="#1e2731" stroke="#1e2731" stroke-width="1.51"/><path d="M-51,500L122,610L208,417Z" fill="#1f2934" stroke="#1f2934" stroke-width="1.51"/><path d="M122,610L14,632L165,808Z" fill="#22333a" stroke="#22333a" stroke-width="1.51"/><path d="M14,632L33,903L165,808Z" fill="#23393d" stroke="#23393d" stroke-width="1.51"/><path d="M34,37L121,217L167,60Z" fill="#1d242c" stroke="#1d242c" stroke-width="1.51"/><path d="M34,37L-5,227L121,217Z" fill="#1d242d" stroke="#1d242d" stroke-width="1.51"/><path d="M-51,500L14,632L122,610Z" fill="#1f2b35" stroke="#1f2b35" stroke-width="1.51"/><path d="M32,1031L-23,1332L151,1159Z" fill="#26544e" stroke="#26544e" stroke-width="1.51"/><path d="M-221,205L-51,500L-5,227Z" fill="#1d252d" stroke="#1d252d" stroke-width="1.51"/><path d="M-220,18L-221,205L-5,227Z" fill="#1c222a" stroke="#1c222a" stroke-width="1.51"/><path d="M-299,581L-293,906L14,632Z" fill="#213237" stroke="#213237" stroke-width="1.51"/><path d="M-313,1158L-23,1332L32,1031Z" fill="#26534b" stroke="#26534b" stroke-width="1.51"/><path d="M-293,906L32,1031L33,903Z" fill="#244342" stroke="#244342" stroke-width="1.51"/><path d="M14,632L-293,906L33,903Z" fill="#223a3d" stroke="#223a3d" stroke-width="1.51"/><path d="M0,-189L-220,18L34,37Z" fill="#1b2127" stroke="#1b2127" stroke-width="1.51"/><path d="M-220,18L-5,227L34,37Z" fill="#1c232a" stroke="#1c232a" stroke-width="1.51"/><path d="M-313,1158L-273,1321L-23,1332Z" fill="#25584e" stroke="#25584e" stroke-width="1.51"/><path d="M-293,906L-313,1158L32,1031Z" fill="#244845" stroke="#244845" stroke-width="1.51"/><path d="M-51,500L-299,581L14,632Z" fill="#1f2a33" stroke="#1f2a33" stroke-width="1.51"/><path d="M-221,205L-313,458L-51,500Z" fill="#1d252e" stroke="#1d252e" stroke-width="1.51"/><path d="M-311,-243L-220,18L0,-189Z" fill="#1b1f24" stroke="#1b1f24" stroke-width="1.51"/><path d="M-313,458L-299,581L-51,500Z" fill="#1e2630" stroke="#1e2630" stroke-width="1.51"/><path d="M-313,458L-221,205L-220,18Z" fill="#1c232a" stroke="#1c232a" stroke-width="1.51"/><path d="M-311,-243L-313,458L-220,18Z" fill="#1b2027" stroke="#1b2027" stroke-width="1.51"/><path d="M-299,581L-313,458L-293,906Z" fill="#1f2d33" stroke="#1f2d33" stroke-width="1.51"/><path d="M-313,458L-313,1158L-293,906Z" fill="#223a3b" stroke="#223a3b" stroke-width="1.51"/></svg>